<?xml version="1.0" encoding="utf-8" ?><svg xmlns="http://www.w3.org/2000/svg" xmlns:xlink="http://www.w3.org/1999/xlink" width="320" height="156" viewBox="0 0 320 156"><path fill="white" d="M0 0L320 0L320 156L0 156L0 0Z"/><path fill="#5A5858" d="M95.2725 38.7939C92.0165 35.8052 90.2403 34.2211 89.9685 29.6088C89.3381 18.9095 96.6384 15.5205 98.5059 6.42051C107.109 13.3983 107.316 25.2064 101.355 33.9618C100.256 35.5752 97.9227 36.4757 97.9433 38.5381C99.9273 39.5084 105.477 32.8317 106.245 30.9397C108.074 26.4366 110.006 23.5168 114.299 20.9383C114.543 6.56925 107.523 16.1764 104.94 14.2477C105.919 13.1961 107.15 13.8591 108.342 12.3743C108.237 11.3531 107.357 10.1036 106.61 9.41727C104.995 9.17484 103.991 10.5873 102.878 10.3207C103.826 8.57993 107.907 7.64412 108.427 10.4294C108.597 11.3447 108.187 11.9135 108.861 12.3962C110.684 12.4436 111.971 11.6644 113.42 13.0664C114.66 14.2675 113.664 15.2935 115.594 15.1811C117.074 15.0949 117.881 15.1144 119.339 15.3692L119.542 19.227C121.296 19.3773 121.828 19.4981 123.515 20.0192C116.464 27.322 114.031 39.722 101.996 40.1834C99.8708 40.2649 97.9737 39.7525 96.1032 38.7639C92.5529 44.7384 89.5364 50.5071 87.7691 57.3035C87.512 58.2921 86.5979 60.7312 87.2968 61.5716C87.7781 61.2648 88.9475 58.6187 89.5083 57.873C93.816 52.1459 100.345 50.5099 106.647 48.0344C107.894 47.5449 110.198 45.2916 111.484 44.3953C103.964 63.0762 95.7329 58.8316 86.2048 71.0632C85.9168 70.1823 85.5409 70.9377 85.2752 69.4812L85.3978 68.4303C85.0123 67.7166 85.2194 67.9464 84.5204 67.5052C85.078 65.5126 85.74 63.2771 86.1258 61.2458C87.7079 52.9137 90.7923 45.973 95.2725 38.7939Z"/><path fill="white" d="M87.5324 62.2656L87.583 62.2127C88.1917 61.5691 89.2509 59.8894 89.8073 59.0807C92.7237 54.8421 95.4301 53.1201 100.12 51.2173C101.182 50.7862 103.321 49.7311 104.42 49.6941L104.582 49.9799C103.977 50.8518 102.53 51.8261 101.632 52.4985C102.389 52.5941 104.309 51.2442 104.883 50.7585C107.103 48.8831 107.612 48.3987 110.35 47.3226C107.283 50.5595 105.437 54.5374 102.093 57.3986C97.4515 61.3706 92.6328 63.3614 88.0011 67.5642C87.35 67.8809 87.5152 67.9264 86.9342 67.792L86.4679 68.2276L86.3053 68.1359C86.7199 67.075 86.6584 68.204 87.0871 67.0696C87.014 66.1301 87.8834 64.8153 88.3615 63.9641C88.3078 62.8493 88.382 63.2058 87.5324 62.2656Z"/><path fill="#5A5858" d="M92.546 59.2568C92.0022 60.2234 87.8337 66.2566 87.0871 67.0696C87.014 66.1301 87.8834 64.8153 88.3615 63.9641C89.6721 62.4615 91.1744 60.6774 92.546 59.2568Z"/><path fill="#E0DAD2" d="M85.3978 68.4303C85.8187 66.751 86.7307 63.7951 87.5324 62.2656C88.382 63.2058 88.3078 62.8493 88.3615 63.9641C87.8834 64.8153 87.014 66.1301 87.0871 67.0696C86.6584 68.204 86.7199 67.075 86.3053 68.1359L86.4679 68.2276L86.9342 67.792C87.5152 67.9264 87.35 67.8809 88.0011 67.5642C87.4356 68.1325 86.2627 69.4624 85.5767 69.6208L85.2752 69.4812L85.3978 68.4303Z"/><path fill="white" d="M98.8563 7.80397C99.1312 7.93951 99.5656 8.13471 99.7694 8.35875C106.109 15.3295 106.337 25.9553 100.739 33.4303C99.4527 35.1473 97.5377 36.9714 96.0212 38.5471C92.0952 33.8191 92.4436 30.0819 93.6117 24.3137C94.0175 22.6937 95.1772 20.0453 95.7689 18.2298C93.2749 22.3514 92.201 25.4712 92.1515 30.4138C92.1402 31.54 92.6961 33.5457 92.3615 34.3403C89.9362 34.0458 90.966 25.1963 91.3551 23.4941C92.5853 18.1138 98.3045 13.0991 98.8563 7.80397Z"/><path fill="white" d="M120.155 19.772C120.825 19.6421 121.367 19.9723 121.677 20.5328C121.214 21.7353 119.95 23.2172 119.202 24.3392C114.175 31.8895 111.755 38.2426 101.878 39.4822C100.928 39.5898 100.873 39.7392 100.064 39.384C100.314 38.6116 103.33 36.2431 104.113 35.1677C110.267 26.7165 108.652 22.7168 120.155 19.772Z"/><path fill="white" d="M114.922 15.7591L118.659 15.7249C118.746 17.2711 119.581 18.9557 118.198 19.6406C117.089 19.8975 115.845 20.318 114.745 20.6624C115.029 18.7011 114.983 17.7243 114.922 15.7591Z"/><path fill="#020202" d="M172.491 42.4281C180.534 42.8833 196.444 38.853 196.1 51.5423C195.99 55.6147 192.388 59.3079 189.024 61.1661C192.825 66.4906 198.546 75.0443 203.991 78.5455C205.785 79.699 208.243 80.218 210.298 80.8638C206.477 81.1141 201.133 81.5945 198.252 78.8672C195.247 76.0228 187.767 65.935 186.141 62.2257L179.026 62.2394C179.015 65.1221 178.477 76.4484 179.836 79.0191C180.148 79.6084 184.784 80.3361 186.283 80.8752C183.212 81.0809 180.215 80.8657 177.137 80.8407C174.148 80.8165 170.926 81.1363 167.981 80.8201C169.915 80.2918 173.016 79.8121 174.598 79.2565C174.869 78.3425 175.092 77.4276 175.169 76.4751C175.512 72.2673 175.898 46.8208 174.634 44.4698C174.265 43.7837 173.606 43.5411 172.884 43.343C172.836 43.3299 172.788 43.3184 172.74 43.306L172.491 42.4281Z"/><path fill="white" d="M181.387 43.2947C188.162 42.9782 192.29 44.6032 192.129 52.6646C192.067 55.7764 191.146 57.6692 188.833 59.7836C185.735 61.2987 182.467 60.8783 179.043 60.764C179.01 56.8416 178.463 48.0039 179.704 44.1974C179.924 43.5243 180.746 43.4476 181.387 43.2947Z"/><path fill="#020202" d="M127.569 41.2945C129.007 41.8927 132.224 50.3281 133.162 52.4256L141.213 69.9714C142.449 72.7153 144.408 77.7859 146.925 79.344C147.617 79.7722 149.912 80.6349 150.783 80.9648C148.497 81.088 145.291 80.7209 142.833 80.7602C139.962 80.8061 136.6 81.1172 133.824 80.895C135.071 80.5487 139.018 79.6728 139.811 79.2379C140.832 77.0059 135.243 66.8408 134.2 63.7635L127.688 63.7631L119.927 63.7946C118.343 68.0537 111.387 79.8858 119.469 80.0962C120.424 80.1211 122.04 80.6314 122.956 80.8932C120.1 81.2146 116.861 80.8032 113.976 80.8372C111.196 80.87 108.502 80.9955 105.715 80.9889C110.345 78.9795 111.552 80.0265 113.788 74.5231C118.245 63.5504 123.476 52.3747 127.569 41.2945Z"/><path fill="white" d="M126.648 47.6002C127.186 47.7823 132.81 60.7043 133.713 62.6297C131.731 62.5029 129.212 62.5572 127.188 62.5504C124.854 62.5493 122.52 62.5712 120.186 62.6163C122.363 58.6305 124.617 52.106 126.648 47.6002Z"/><path fill="#020202" d="M246.839 41.1321C248.274 41.968 260.102 70.9075 262.342 74.6718C265.285 79.6158 264.12 79.0607 270.1 80.897C267.497 81.114 264.211 80.7641 261.526 80.79C258.58 80.8183 255.62 81.0988 252.7 80.8676C254.614 80.1875 257.313 80.1995 258.819 79.0186C259.618 76.9158 254.378 66.9918 253.467 63.7604L246.438 63.7798L238.955 63.7614C237.518 67.4058 233.868 74.4154 234.96 78.1167C235.389 79.5701 240.406 80.4279 241.985 80.9124C239.097 81.1441 235.876 80.795 232.975 80.8248C230.153 80.8537 227.487 81.0103 224.646 80.9493C227.278 79.8978 229.676 80.0913 231.292 77.4265C233.237 74.2179 234.515 70.6654 235.963 67.2097L242.316 52.0431C243.814 48.3674 245.117 44.7119 246.839 41.1321Z"/><path fill="white" d="M245.842 46.9398C246.017 47.0885 251.993 61.0942 252.63 62.5457L246.968 62.5446L239.533 62.5174C241.44 57.3861 243.802 52.1025 245.842 46.9398Z"/><path fill="#020202" d="M62.4411 68.1377C62.5732 68.5521 62.7672 69.233 62.8427 69.6517C64.1069 76.6646 69.7679 83.1697 77.5361 79.6575C79.0496 78.9791 80.2287 77.7235 80.8108 76.1704C85.6702 63.2057 61.6527 62.371 63.2339 50.6784C64.6702 40.0583 75.6444 40.7515 83.1503 43.5932C83.1578 46.4456 83.4996 49.7512 83.2952 52.5403C82.0639 50.1603 81.9134 47.8022 80.2235 45.474C76.6639 40.0889 66.4433 42.8437 66.6841 49.2425C67.0567 59.1405 80.5547 58.8163 84.5204 67.5052C85.2194 67.9464 85.0123 67.7166 85.3978 68.4303L85.2752 69.4812C85.5409 70.9377 85.9168 70.1823 86.2048 71.0632C84.7206 73.6177 84.5448 75.3509 82.0495 78.141C77.7022 83.0017 68.6124 82.4207 63.5379 79.3035C62.4083 78.6096 62.4471 70.0483 62.4411 68.1377Z"/><path fill="#020202" d="M147.631 124.311C148.582 124.231 150.319 124.024 151.185 124.386C155.335 126.122 155.534 131.006 151.373 132.968C144.358 134.079 142.393 127.022 147.631 124.311Z"/><path fill="white" d="M148.137 125.075C149.422 124.592 150.868 124.843 151.914 125.731C152.961 126.619 153.444 128.004 153.177 129.35C152.909 130.696 151.933 131.792 150.627 132.212C148.673 132.841 146.575 131.796 145.899 129.859C145.223 127.921 146.217 125.798 148.137 125.075Z"/><path fill="#7D796E" d="M162.51 100.678C163.025 100.038 163.545 99.2059 164.31 99.019C165.766 99.1632 167.977 102.575 169.676 103.737C168.925 104.798 167.741 106.646 166.529 107.116C164.94 107.327 165.236 105.114 163.09 107.481L162.968 107.578C160.834 107.49 159.349 103.474 161.589 101.34L162.51 100.678Z"/><path fill="#E0DAD2" d="M161.589 101.34L162.51 100.678C163.229 102.77 162.629 104.118 163.109 105.825L162.746 106.549L162.244 106.772C162.565 107.327 162.453 107.16 163.09 107.481L162.968 107.578C160.834 107.49 159.349 103.474 161.589 101.34Z"/><path fill="#818869" d="M161.589 101.34L161.591 101.473C161.598 103.104 159.844 105.553 162.746 106.549L162.244 106.772C162.565 107.327 162.453 107.16 163.09 107.481L162.968 107.578C160.834 107.49 159.349 103.474 161.589 101.34Z"/><path fill="white" d="M165.763 101.904C166.919 101.999 167.819 103.102 168.634 103.905C168.285 104.473 167.43 105.515 166.987 106.082C166.596 106.302 166.423 106.252 165.989 106.211C165.731 105.2 166.602 104.605 166.514 103.866C166.43 103.158 165.856 103.355 165.763 101.904Z"/><path fill="#020202" d="M188.962 123.915C189.57 124.132 193.531 124.449 194.694 124.625C196.131 127.278 196.169 128.084 193.648 129.953C194.216 130.756 195.525 132.23 195.121 133.175L194.426 133.238C193.948 132.421 193.428 131.217 193.017 130.33C192.156 130.237 190.671 130.254 189.76 130.237C189.775 131.484 189.819 132.269 189.313 133.41C188.411 131.935 188.846 125.85 188.962 123.915Z"/><path fill="white" d="M189.842 124.775C191.773 125.004 194.267 124.79 194.867 126.974C194.751 127.946 194.484 128.195 193.871 128.917C192.617 129.332 190.925 129.217 189.573 129.201C189.631 127.724 189.721 126.249 189.842 124.775Z"/><path fill="#020202" d="M170.339 123.652L170.604 123.902C170.918 125.302 168.429 132.363 167.846 133.99C165.724 130.991 165.504 129.295 164.926 125.73C163.405 127.746 162.947 129.206 162.129 131.52C161.894 132.182 161.69 132.714 161.101 132.972C160.157 132.105 159.671 127.938 159.448 126.557C159.328 125.852 159.033 125.026 159.323 124.537C159.836 125.44 160.848 130.556 161.113 131.807C161.981 128.787 163.229 126.212 164.502 123.355C165.1 124.842 166.836 130.761 167.645 131.193C168.147 130.45 169.589 125.316 170.339 123.652Z"/><path fill="#020202" d="M176.431 124.129C177.607 124.297 181.688 124.109 182.717 124.744C180.674 124.938 179.339 124.93 177.286 124.891L177.27 128.18C178.714 128.205 180.617 128.11 181.943 128.592L181.714 128.813C180.315 129.145 178.705 129.034 177.256 128.999C177.286 130.017 177.248 131.206 177.242 132.24C179.56 132.192 180.582 132.212 182.871 132.536L182.765 132.652C179.918 133.281 179.097 133.182 176.203 133.079C176.375 130.06 176.266 127.151 176.431 124.129Z"/><path fill="#020202" d="M206.506 124.233L206.916 124.559L206.933 125.155C206.056 125.615 204.884 124.331 202.721 125.162C202.027 125.918 202.2 125.575 201.969 126.541C203.186 128.978 207.84 128.196 208.1 130.996C206.932 133.777 204.116 133.166 201.738 132.938C201.348 132.622 201.226 132.551 201.012 132.073C202.3 131.536 206.067 133.387 207.069 130.907C206.23 129.113 202.49 129.298 200.825 127.071C200.711 126.559 200.573 126.333 200.883 125.829C202.538 123.145 204.433 124.858 206.506 124.233Z"/><path fill="#9C9897" d="M133.095 103.595C135.507 103.436 153.175 103.313 154.904 103.717L155.032 104.014L154.535 104.253C151.509 104.367 133.541 104.642 132.633 103.927L133.095 103.595Z"/><path fill="#9C9897" d="M174.677 103.598C176.806 103.337 195.506 103.242 197.226 103.593L197.313 103.954C195.278 104.357 176.66 104.557 174.946 104.086L174.677 103.598Z"/><path fill="#020202" d="M122.81 124.035C123.582 124.204 127.79 124.284 128.869 124.327L128.96 124.455C127.234 125.091 125.569 124.88 123.789 124.721L123.734 128.388C124.776 128.341 126.471 128.447 127.561 128.482L128.177 128.491L128.266 128.753C127.476 129.497 124.927 129.266 123.758 129.235C123.783 130.717 123.878 132.007 123.336 133.395L123.068 133.219C122.454 131.52 122.761 126.112 122.81 124.035Z"/><path fill="#020202" d="M134.488 123.869L135.061 124.167C135.733 125.028 135.445 130.65 135.451 132.216C136.58 132.199 139.849 132.03 140.595 132.525L140.629 132.972C138.533 133.022 136.326 133.026 134.252 133.283C134.41 130.338 134.416 126.853 134.488 123.869Z"/><path fill="#020202" d="M167.972 42.4379C169.244 42.3363 171.309 42.1241 172.491 42.4281L172.74 43.306C171.058 43.3164 169.559 42.9187 167.972 42.4379Z"/></svg>